<svg width="26" height="25" viewBox="0 0 26 25" fill="none" xmlns="http://www.w3.org/2000/svg">
<path d="M19.6805 14.9789C18.9528 14.8284 18.3771 15.1532 17.8674 15.4369C17.3454 15.7293 16.3528 16.5035 15.7839 16.3054C12.8709 15.1522 10.1312 12.7006 8.94526 9.88845C8.73624 9.32971 9.53769 8.36922 9.83949 7.86137C10.1324 7.36976 10.4632 6.81101 10.3123 6.10608C10.1759 5.47262 8.41208 3.31451 7.78836 2.72436C7.37701 2.33453 6.9556 2.12013 6.52302 2.08548C4.89664 2.01834 3.08024 4.10498 2.76167 4.60418C1.96357 5.66861 1.96804 7.08497 2.77508 8.80236C4.72003 13.4153 12.0762 20.3769 16.8916 22.3173C17.7803 22.7169 18.5929 22.9172 19.3228 22.9172C20.0371 22.9172 20.6731 22.7256 21.2197 22.3455C21.6321 22.117 23.8912 20.2838 23.832 18.6779C23.7962 18.2686 23.5737 17.8593 23.1736 17.4629C22.5644 16.8576 20.3344 15.111 19.6805 14.9789Z" fill="#200E32"/>
</svg>
